<svg id="visual" viewBox="0 0 900 600" width="900" height="600" xmlns="http://www.w3.org/2000/svg" xmlns:xlink="http://www.w3.org/1999/xlink" version="1.1"><rect x="0" y="0" width="900" height="600" fill="#000d16"></rect><defs><linearGradient id="grad1_0" x1="33.3%" y1="0%" x2="100%" y2="100%"><stop offset="20%" stop-color="#f69400" stop-opacity="1"></stop><stop offset="80%" stop-color="#f69400" stop-opacity="1"></stop></linearGradient></defs><defs><linearGradient id="grad1_1" x1="33.3%" y1="0%" x2="100%" y2="100%"><stop offset="20%" stop-color="#f69400" stop-opacity="1"></stop><stop offset="80%" stop-color="#e7584b" stop-opacity="1"></stop></linearGradient></defs><defs><linearGradient id="grad1_2" x1="33.3%" y1="0%" x2="100%" y2="100%"><stop offset="20%" stop-color="#af3b69" stop-opacity="1"></stop><stop offset="80%" stop-color="#e7584b" stop-opacity="1"></stop></linearGradient></defs><defs><linearGradient id="grad1_3" x1="33.3%" y1="0%" x2="100%" y2="100%"><stop offset="20%" stop-color="#af3b69" stop-opacity="1"></stop><stop offset="80%" stop-color="#643567" stop-opacity="1"></stop></linearGradient></defs><defs><linearGradient id="grad1_4" x1="33.3%" y1="0%" x2="100%" y2="100%"><stop offset="20%" stop-color="#212745" stop-opacity="1"></stop><stop offset="80%" stop-color="#643567" stop-opacity="1"></stop></linearGradient></defs><defs><linearGradient id="grad1_5" x1="33.3%" y1="0%" x2="100%" y2="100%"><stop offset="20%" stop-color="#212745" stop-opacity="1"></stop><stop offset="80%" stop-color="#000d16" stop-opacity="1"></stop></linearGradient></defs><defs><linearGradient id="grad2_0" x1="0%" y1="0%" x2="66.7%" y2="100%"><stop offset="20%" stop-color="#f69400" stop-opacity="1"></stop><stop offset="80%" stop-color="#f69400" stop-opacity="1"></stop></linearGradient></defs><defs><linearGradient id="grad2_1" x1="0%" y1="0%" x2="66.7%" y2="100%"><stop offset="20%" stop-color="#e7584b" stop-opacity="1"></stop><stop offset="80%" stop-color="#f69400" stop-opacity="1"></stop></linearGradient></defs><defs><linearGradient id="grad2_2" x1="0%" y1="0%" x2="66.7%" y2="100%"><stop offset="20%" stop-color="#e7584b" stop-opacity="1"></stop><stop offset="80%" stop-color="#af3b69" stop-opacity="1"></stop></linearGradient></defs><defs><linearGradient id="grad2_3" x1="0%" y1="0%" x2="66.7%" y2="100%"><stop offset="20%" stop-color="#643567" stop-opacity="1"></stop><stop offset="80%" stop-color="#af3b69" stop-opacity="1"></stop></linearGradient></defs><defs><linearGradient id="grad2_4" x1="0%" y1="0%" x2="66.7%" y2="100%"><stop offset="20%" stop-color="#643567" stop-opacity="1"></stop><stop offset="80%" stop-color="#212745" stop-opacity="1"></stop></linearGradient></defs><defs><linearGradient id="grad2_5" x1="0%" y1="0%" x2="66.7%" y2="100%"><stop offset="20%" stop-color="#000d16" stop-opacity="1"></stop><stop offset="80%" stop-color="#212745" stop-opacity="1"></stop></linearGradient></defs><g transform="translate(900, 0)"><path d="M0 405.6C-65.1 385.6 -130.2 365.6 -193 334.3C-255.8 303 -316.2 260.4 -351.3 202.8C-386.3 145.2 -396 72.6 -405.6 0L0 0Z" fill="#0d1c2e"></path><path d="M0 338C-54.3 321.3 -108.5 304.7 -160.8 278.6C-213.2 252.5 -263.5 217 -292.7 169C-321.9 121 -330 60.5 -338 0L0 0Z" fill="#3f2f5a"></path><path d="M0 270.4C-43.4 257.1 -86.8 243.7 -128.7 222.9C-170.5 202 -210.8 173.6 -234.2 135.2C-257.6 96.8 -264 48.4 -270.4 0L0 0Z" fill="#8a386c"></path><path d="M0 202.8C-32.6 192.8 -65.1 182.8 -96.5 167.1C-127.9 151.5 -158.1 130.2 -175.6 101.4C-193.2 72.6 -198 36.3 -202.8 0L0 0Z" fill="#cf455d"></path><path d="M0 135.2C-21.7 128.5 -43.4 121.9 -64.3 111.4C-85.3 101 -105.4 86.8 -117.1 67.6C-128.8 48.4 -132 24.2 -135.2 0L0 0Z" fill="#f47432"></path><path d="M0 67.6C-10.9 64.3 -21.7 60.9 -32.2 55.7C-42.6 50.5 -52.7 43.4 -58.5 33.8C-64.4 24.2 -66 12.1 -67.6 0L0 0Z" fill="#f69400"></path></g><g transform="translate(0, 600)"><path d="M0 -405.6C65.4 -386.1 130.8 -366.5 193.5 -335.2C256.2 -303.8 316.4 -260.6 351.3 -202.8C386.2 -145 395.9 -72.5 405.6 0L0 0Z" fill="#0d1c2e"></path><path d="M0 -338C54.5 -321.7 109 -305.4 161.2 -279.3C213.5 -253.2 263.6 -217.2 292.7 -169C321.8 -120.8 329.9 -60.4 338 0L0 0Z" fill="#3f2f5a"></path><path d="M0 -270.4C43.6 -257.4 87.2 -244.3 129 -223.4C170.8 -202.5 210.9 -173.8 234.2 -135.2C257.5 -96.7 263.9 -48.3 270.4 0L0 0Z" fill="#8a386c"></path><path d="M0 -202.8C32.7 -193 65.4 -183.3 96.7 -167.6C128.1 -151.9 158.2 -130.3 175.6 -101.4C193.1 -72.5 198 -36.2 202.8 0L0 0Z" fill="#cf455d"></path><path d="M0 -135.2C21.8 -128.7 43.6 -122.2 64.5 -111.7C85.4 -101.3 105.5 -86.9 117.1 -67.6C128.7 -48.3 132 -24.2 135.2 0L0 0Z" fill="#f47432"></path><path d="M0 -67.6C10.9 -64.3 21.8 -61.1 32.2 -55.9C42.7 -50.6 52.7 -43.4 58.5 -33.8C64.4 -24.2 66 -12.1 67.6 0L0 0Z" fill="#f69400"></path></g></svg>