<svg id="visual" viewBox="0 0 900 600" width="900" height="600" xmlns="http://www.w3.org/2000/svg" xmlns:xlink="http://www.w3.org/1999/xlink" version="1.1"><rect x="0" y="0" width="900" height="600" fill="#ffffff"></rect><path d="M0 482L25 490.7C50 499.3 100 516.7 150 528C200 539.3 250 544.7 300 544C350 543.3 400 536.7 450 523.8C500 511 550 492 600 485C650 478 700 483 750 492C800 501 850 514 875 520.5L900 527L900 601L875 601C850 601 800 601 750 601C700 601 650 601 600 601C550 601 500 601 450 601C400 601 350 601 300 601C250 601 200 601 150 601C100 601 50 601 25 601L0 601Z" fill="#ff9b00" stroke-linecap="round" stroke-linejoin="miter"></path></svg>