<svg id="visual" viewBox="0 0 900 600" width="900" height="600" xmlns="http://www.w3.org/2000/svg" xmlns:xlink="http://www.w3.org/1999/xlink" version="1.1"><rect x="0" y="0" width="900" height="600" fill="#3a3c3d"></rect><path d="M0 427L30 410.5C60 394 120 361 180 352.8C240 344.7 300 361.3 360 395C420 428.7 480 479.3 540 509.2C600 539 660 548 720 523.2C780 498.3 840 439.7 870 410.3L900 381L900 601L870 601C840 601 780 601 720 601C660 601 600 601 540 601C480 601 420 601 360 601C300 601 240 601 180 601C120 601 60 601 30 601L0 601Z" fill="#00f7ff" stroke-linecap="round" stroke-linejoin="miter"></path></svg>