<svg id="visual" viewBox="0 0 900 600" width="900" height="600" xmlns="http://www.w3.org/2000/svg" xmlns:xlink="http://www.w3.org/1999/xlink" version="1.1"><rect x="0" y="0" width="900" height="600" fill="#ffffff"></rect><path d="M0 364L25 381.5C50 399 100 434 150 456.7C200 479.3 250 489.7 300 488.3C350 487 400 474 450 448.3C500 422.7 550 384.3 600 370.3C650 356.3 700 366.7 750 384.8C800 403 850 429 875 442L900 455L900 601L875 601C850 601 800 601 750 601C700 601 650 601 600 601C550 601 500 601 450 601C400 601 350 601 300 601C250 601 200 601 150 601C100 601 50 601 25 601L0 601Z" fill="#ff9b00" stroke-linecap="round" stroke-linejoin="miter"></path></svg>